<svg width="2053" height="664" xmlns="http://www.w3.org/2000/svg" xmlns:xlink="http://www.w3.org/1999/xlink" xml:space="preserve" overflow="hidden"><g transform="translate(-1320 -362)"><g><text fill="#FFFFFF" fill-opacity="1" font-family="Pretendard,Pretendard_MSFontService,sans-serif" font-style="normal" font-variant="normal" font-weight="700" font-stretch="normal" font-size="298" text-anchor="start" direction="ltr" writing-mode="lr-tb" unicode-bidi="normal" text-decoration="none" transform="matrix(1 0 0 1 1835.61 771)">CS</text><text fill="#FFFFFF" fill-opacity="1" font-family="Pretendard,Pretendard_MSFontService,sans-serif" font-style="normal" font-variant="normal" font-weight="700" font-stretch="normal" font-size="298" text-anchor="start" direction="ltr" writing-mode="lr-tb" unicode-bidi="normal" text-decoration="none" transform="matrix(1 0 0 1 2238.94 771)">-</text><text fill="#FFFFFF" fill-opacity="1" font-family="Pretendard,Pretendard_MSFontService,sans-serif" font-style="normal" font-variant="normal" font-weight="700" font-stretch="normal" font-size="298" text-anchor="start" direction="ltr" writing-mode="lr-tb" unicode-bidi="normal" text-decoration="none" transform="matrix(1 0 0 1 2373.01 771)">ALGO</text><path d="M1578 879C1578 834.265 1614.27 798 1659 798 1703.74 798 1740 834.265 1740 879 1740 923.735 1703.74 960 1659 960 1614.27 960 1578 923.735 1578 879Z" fill="#FFFFFF" fill-rule="evenodd" fill-opacity="1"/><path d="M1404 761 1658.35 878.948" stroke="#FFFFFF" stroke-width="45.8333" stroke-linecap="butt" stroke-linejoin="miter" stroke-miterlimit="8" stroke-opacity="1" fill="none" fill-rule="evenodd"/><path d="M1436 461.5C1436 407.652 1479.65 364 1533.5 364 1587.35 364 1631 407.652 1631 461.5 1631 515.348 1587.35 559 1533.5 559 1479.65 559 1436 515.348 1436 461.5Z" fill="#1D2B3A" fill-rule="evenodd" fill-opacity="1"/><path d="M0 0 128.638 304.949" stroke="#1D2B3A" stroke-width="45.8333" stroke-linecap="butt" stroke-linejoin="miter" stroke-miterlimit="8" stroke-opacity="1" fill="none" fill-rule="evenodd" transform="matrix(1 0 0 -1 1404 770.949)"/><path d="M1324 761C1324 716.265 1360.27 680 1405 680 1449.74 680 1486 716.265 1486 761 1486 805.735 1449.74 842 1405 842 1360.27 842 1324 805.735 1324 761Z" fill="#FFFFFF" fill-rule="evenodd" fill-opacity="1"/></g></g></svg>